<?xml version="1.0" standalone="no"?>
<!DOCTYPE svg PUBLIC "-//W3C//DTD SVG 20010904//EN"
 "http://www.w3.org/TR/2001/REC-SVG-20010904/DTD/svg10.dtd">
<svg version="1.0" xmlns="http://www.w3.org/2000/svg"
 width="864.000000pt" height="377.000000pt" viewBox="0 0 864.000000 377.000000"
 preserveAspectRatio="xMidYMid meet">

<g transform="translate(0.000000,377.000000) scale(0.100000,-0.100000)"
fill="#000000" stroke="none">
<path d="M490 2210 l0 -1110 3830 0 3830 0 0 1110 0 1110 -3830 0 -3830 0 0
-1110z m7598 -2 l-3 -1053 -3767 -3 -3768 -2 0 1055 0 1055 3770 0 3770 0 -2
-1052z"/>
<path d="M1870 2693 c-102 -218 -184 -399 -183 -402 2 -3 28 -7 58 -9 l56 -3
45 95 44 96 164 0 164 0 39 -92 40 -93 53 -3 c29 -2 57 1 61 5 9 9 -339 803
-351 803 -3 0 -88 -179 -190 -397z m244 16 l55 -124 -111 -3 c-61 -1 -112 -1
-114 1 -2 2 22 60 54 129 31 70 58 125 59 124 2 -1 27 -58 57 -127z"/>
<path d="M2755 3054 c-101 -37 -160 -156 -124 -251 19 -52 72 -95 175 -143
115 -55 154 -92 154 -147 0 -78 -54 -133 -132 -133 -52 0 -93 31 -114 87 -9
26 -19 50 -20 52 -2 2 -26 -2 -55 -9 l-51 -13 6 -35 c9 -55 56 -123 109 -156
119 -74 284 -28 349 98 28 52 30 165 5 212 -26 50 -92 100 -179 135 -105 42
-138 70 -138 116 0 51 45 93 100 93 48 0 77 -13 106 -48 l20 -25 42 24 c23 13
42 30 42 38 0 24 -87 99 -127 110 -52 15 -120 13 -168 -5z"/>
<path d="M3466 3055 c-92 -32 -136 -95 -136 -192 0 -54 4 -66 33 -104 32 -42
60 -60 191 -122 38 -18 78 -44 89 -59 23 -30 26 -102 7 -137 -27 -52 -114 -76
-170 -48 -31 16 -70 73 -70 103 0 27 -2 28 -70 13 -51 -11 -51 -11 -44 -42 17
-82 90 -167 161 -186 170 -48 323 63 323 233 0 114 -45 169 -194 235 -115 52
-122 57 -136 91 -11 27 -11 37 3 66 31 65 137 73 189 15 l28 -31 39 20 c22 11
42 24 45 28 11 18 -45 81 -96 106 -59 30 -129 34 -192 11z"/>
<path d="M4385 2805 c-55 -145 -101 -262 -104 -260 -2 3 -48 116 -101 252
l-97 248 -63 3 c-49 2 -61 0 -58 -11 7 -31 313 -797 318 -797 3 0 46 109 94
243 49 133 94 252 100 264 10 20 23 -9 105 -235 52 -141 96 -261 99 -266 3 -5
9 -1 14 7 12 22 319 757 325 780 5 16 -1 18 -57 15 l-63 -3 -100 -247 c-55
-137 -103 -248 -106 -248 -4 0 -49 117 -101 260 -51 143 -96 260 -100 260 -4
0 -51 -119 -105 -265z"/>
<path d="M5490 3055 c-188 -53 -301 -217 -287 -417 15 -224 202 -384 426 -365
98 8 172 40 239 102 134 123 167 314 84 483 -35 72 -125 154 -199 182 -76 29
-190 35 -263 15z m249 -130 c188 -103 188 -407 0 -510 -37 -20 -71 -29 -119
-33 -121 -8 -215 41 -268 142 -24 45 -27 62 -27 146 0 87 3 100 30 149 56 101
136 143 261 138 54 -3 82 -10 123 -32z"/>
<path d="M6260 2669 l0 -390 53 3 52 3 3 158 c2 116 6 157 15 157 6 0 62 -71
122 -158 l110 -157 59 -3 c32 -2 62 1 67 5 4 4 -44 79 -108 166 -63 87 -114
159 -112 160 2 1 27 14 54 28 73 38 109 100 109 188 0 52 -5 76 -24 111 -49
88 -130 120 -306 120 l-94 0 0 -391z m232 269 c54 -16 78 -49 78 -109 0 -68
-34 -105 -111 -121 -89 -18 -89 -18 -89 122 l0 120 41 0 c23 0 59 -5 81 -12z"/>
<path d="M1102 2663 l3 -388 55 0 55 0 3 158 3 157 44 0 c160 0 265 90 265
228 0 115 -70 201 -182 222 -28 6 -95 10 -149 10 l-99 0 2 -387z m248 261 c45
-18 70 -55 70 -104 0 -74 -57 -120 -149 -120 l-51 0 0 120 0 120 45 0 c24 0
63 -7 85 -16z"/>
<path d="M6980 2665 l0 -385 120 0 c65 0 143 5 172 11 117 25 210 95 260 197
32 64 33 72 33 182 0 107 -2 119 -29 171 -15 31 -45 74 -65 94 -87 90 -164
115 -358 115 l-133 0 0 -385z m298 260 c107 -32 175 -129 176 -250 1 -89 -16
-137 -68 -193 -53 -58 -106 -81 -206 -89 l-80 -6 0 277 0 276 63 0 c35 0 87
-7 115 -15z"/>
<path d="M2500 1765 l0 -405 60 0 60 0 2 264 3 264 269 -284 c149 -156 271
-284 273 -284 2 0 3 182 3 405 l0 405 -55 0 -55 0 0 -260 c0 -145 -4 -260 -9
-260 -5 0 -129 126 -276 280 -146 154 -268 280 -271 280 -2 0 -4 -182 -4 -405z"/>
<path d="M5157 2139 c-8 -19 -92 -198 -186 -398 -94 -201 -171 -368 -171 -373
0 -10 101 -10 116 0 6 4 29 46 49 95 l38 87 164 0 164 0 29 -67 c53 -123 49
-118 113 -121 43 -2 57 0 57 11 0 15 -338 777 -351 791 -4 5 -14 -7 -22 -25z
m71 -348 c29 -66 52 -122 52 -125 0 -3 -49 -6 -110 -6 -60 0 -110 3 -110 8 0
12 105 241 111 242 3 0 29 -54 57 -119z"/>
<path d="M1092 2135 c-74 -21 -108 -41 -168 -97 -159 -151 -160 -429 -1 -586
68 -66 131 -94 229 -100 60 -3 92 0 149 18 63 19 81 30 134 83 72 72 103 142
112 249 l6 68 -157 0 -156 0 0 -55 0 -55 91 0 92 0 -6 -36 c-14 -84 -101 -153
-202 -161 -85 -7 -144 10 -199 58 -63 55 -90 124 -91 224 0 124 44 204 145
263 39 24 56 27 130 27 97 0 140 -17 199 -79 l34 -35 43 30 c24 16 44 34 44
39 0 24 -69 83 -134 115 -60 30 -85 36 -156 40 -58 4 -102 0 -138 -10z"/>
<path d="M6622 2139 c-109 -21 -219 -111 -271 -219 -23 -49 -26 -67 -26 -170
0 -110 1 -118 33 -182 40 -83 119 -158 200 -190 46 -18 77 -22 158 -23 96 0
103 2 176 38 87 43 142 98 185 186 25 51 28 66 28 166 0 103 -2 114 -32 177
-80 170 -257 255 -451 217z m187 -115 c193 -57 250 -351 97 -492 -57 -53 -129
-76 -215 -70 -108 8 -186 61 -232 157 -32 66 -32 186 0 257 59 133 200 193
350 148z"/>
<path d="M4155 2129 c-3 -8 -4 -183 -3 -389 l3 -375 55 0 55 0 3 158 c2 120 6
158 15 154 6 -2 56 -66 110 -143 132 -188 117 -174 187 -174 37 0 60 4 60 11
0 6 -47 76 -105 155 -58 80 -108 150 -110 157 -2 7 17 22 44 35 73 34 105 86
109 177 6 108 -33 175 -128 218 -58 26 -286 39 -295 16z m227 -109 c75 -21
114 -118 72 -179 -22 -31 -90 -61 -141 -61 l-43 0 0 125 0 125 38 0 c20 0 54
-5 74 -10z"/>
<path d="M7372 1754 l3 -389 55 0 55 0 3 158 c1 86 7 157 12 157 4 0 59 -72
120 -160 l111 -160 65 0 c35 0 64 4 64 10 0 5 -49 77 -110 160 -60 83 -110
154 -110 159 0 5 11 12 25 15 37 9 96 65 116 111 38 83 17 197 -47 257 -51 47
-98 61 -237 66 l-127 5 2 -389z m229 266 c102 -28 120 -168 28 -216 -17 -8
-55 -18 -85 -21 l-54 -6 0 127 0 126 38 0 c20 0 53 -5 73 -10z"/>
<path d="M1810 1745 l0 -385 210 0 210 0 0 55 0 55 -150 0 -150 0 0 120 0 120
151 0 150 0 -3 53 -3 52 -147 3 -148 3 0 99 0 100 150 0 150 0 0 55 0 55 -210
0 -210 0 0 -385z"/>
<path d="M3470 1745 l0 -385 210 0 210 0 0 55 0 55 -150 0 -150 0 0 120 0 120
145 0 145 0 0 55 0 55 -145 0 -145 0 0 100 0 100 150 0 150 0 0 55 0 55 -210
0 -210 0 0 -385z"/>
<path d="M5670 2075 l0 -55 85 0 85 0 0 -330 0 -330 60 0 60 0 0 330 0 330 91
0 90 0 -3 53 -3 52 -232 3 -233 2 0 -55z"/>
<path d="M3526 708 c-38 -79 -70 -149 -73 -155 -3 -8 4 -13 19 -13 18 0 29 9
41 35 17 35 17 35 82 35 66 0 66 0 81 -35 11 -27 20 -35 39 -35 25 0 25 1 11
33 -33 77 -119 263 -126 270 -4 4 -37 -57 -74 -135z m93 -5 l21 -43 -45 0 -45
0 22 45 c12 24 23 44 24 42 1 -1 11 -21 23 -44z"/>
<path d="M4464 704 c-38 -80 -70 -150 -72 -155 -2 -5 7 -9 20 -9 18 0 29 9 41
35 17 35 17 35 82 35 65 0 65 0 82 -35 12 -25 23 -35 40 -35 13 0 23 1 23 3 0
8 -132 293 -139 300 -4 4 -39 -58 -77 -139z m97 -4 l18 -40 -44 0 -45 0 22 45
c12 24 24 42 26 40 3 -3 13 -23 23 -45z"/>
<path d="M4820 698 l0 -158 25 0 c25 0 25 0 25 100 l0 100 105 -108 104 -107
1 158 c0 150 -1 157 -20 157 -19 0 -20 -7 -20 -100 0 -55 -3 -100 -7 -100 -3
0 -53 48 -109 108 l-103 107 -1 -157z"/>
<path d="M6314 740 c-27 -60 -51 -106 -54 -102 -4 4 -26 51 -50 105 -23 53
-46 97 -50 97 -7 0 -60 -251 -60 -284 0 -9 8 -16 20 -16 21 0 22 4 40 104 5
33 12 61 14 63 2 2 21 -37 42 -86 22 -50 41 -91 44 -91 3 0 23 41 44 90 21 50
40 89 42 87 2 -2 9 -30 14 -63 18 -100 19 -104 40 -104 14 0 20 7 20 23 0 27
-47 277 -53 283 -2 2 -26 -45 -53 -106z"/>
<path d="M2290 821 c-108 -57 -108 -219 0 -273 19 -10 49 -18 65 -18 68 0 145
69 145 131 0 29 -1 29 -60 29 -53 0 -60 -2 -60 -20 0 -16 7 -20 35 -20 41 0
46 -17 13 -48 -52 -48 -137 -32 -163 32 -19 45 -19 60 2 103 30 63 118 80 168
33 19 -17 24 -18 40 -6 16 11 17 17 7 29 -38 46 -133 60 -192 28z"/>
<path d="M2660 690 l0 -150 85 0 c78 0 85 2 85 20 0 18 -7 20 -60 20 l-60 0 0
45 0 45 55 0 c52 0 55 1 55 25 0 24 -3 25 -55 25 l-55 0 0 35 0 35 61 0 c57 0
60 1 57 23 -3 20 -9 22 -85 25 l-83 3 0 -151z"/>
<path d="M2954 825 c-9 -22 4 -35 37 -35 l29 0 0 -125 0 -125 25 0 25 0 0 125
0 125 35 0 c31 0 35 3 35 25 0 25 -1 25 -90 25 -70 0 -92 -3 -96 -15z"/>
<path d="M4080 690 l0 -150 25 0 c24 0 25 3 25 62 l0 62 45 -62 c36 -49 51
-62 71 -62 29 0 33 -8 -31 81 -21 30 -26 44 -17 47 44 14 65 79 41 124 -14 26
-68 48 -119 48 l-40 0 0 -150z m106 92 c34 -23 12 -82 -32 -82 -22 0 -24 4
-24 45 0 40 2 45 23 45 12 0 27 -4 33 -8z"/>
<path d="M5258 834 c-5 -4 -8 -72 -8 -151 l0 -143 63 0 c102 0 163 44 174 128
7 52 -24 120 -66 145 -32 19 -151 34 -163 21z m153 -73 c66 -67 16 -181 -80
-181 l-31 0 0 105 0 105 41 0 c31 0 47 -6 70 -29z"/>
<path d="M5725 826 c-103 -45 -124 -181 -40 -255 112 -98 287 -1 259 145 -17
94 -128 150 -219 110z m132 -51 c31 -21 46 -61 40 -108 -18 -133 -217 -119
-217 15 0 50 13 74 53 99 36 23 83 20 124 -6z"/>
<path d="M5130 313 c0 -136 1 -143 20 -143 19 0 20 7 20 95 l0 94 91 -94 c51
-52 96 -95 100 -95 5 0 9 61 9 135 0 128 -1 135 -20 135 -19 0 -20 -7 -20 -90
0 -49 -2 -90 -4 -90 -1 0 -46 44 -99 98 l-97 97 0 -142z"/>
<path d="M6041 358 l-35 -92 -28 63 c-16 35 -31 74 -34 87 -4 17 -13 24 -31
24 -16 0 -23 -4 -20 -12 3 -7 27 -65 52 -128 26 -63 50 -119 55 -123 4 -5 22
30 40 77 18 48 34 85 36 83 2 -1 16 -37 31 -79 15 -42 33 -75 38 -75 8 1 115
238 115 254 0 2 -10 3 -21 1 -16 -2 -29 -22 -53 -80 -18 -43 -35 -80 -38 -83
-3 -3 -20 35 -38 85 -18 49 -33 90 -34 90 0 0 -16 -42 -35 -92z"/>
<path d="M2220 305 c0 -128 1 -135 20 -135 18 0 20 7 20 54 l0 55 37 3 c50 4
78 42 69 92 -8 43 -45 66 -106 66 l-40 0 0 -135z m98 83 c27 -27 1 -78 -39
-78 -16 0 -19 7 -19 45 0 40 2 45 23 45 13 0 28 -5 35 -12z"/>
<path d="M2536 318 c-32 -68 -60 -129 -63 -135 -3 -8 3 -13 16 -13 16 0 26 10
37 35 14 34 16 35 69 35 53 0 56 -1 72 -35 12 -24 23 -35 39 -35 21 0 19 7
-39 135 -33 74 -63 135 -67 135 -4 0 -33 -55 -64 -122z m80 7 c19 -46 19 -45
-20 -45 l-34 0 15 40 c9 22 18 40 20 40 2 0 11 -16 19 -35z"/>
<path d="M2868 423 c-31 -36 -31 -61 -1 -91 16 -15 44 -35 62 -44 26 -15 32
-23 29 -45 -2 -23 -8 -29 -35 -31 -24 -2 -34 2 -43 17 -9 18 -50 31 -50 16 0
-16 31 -63 45 -69 61 -23 125 16 125 77 0 37 -15 55 -70 82 -19 10 -38 22 -42
28 -18 29 28 54 59 32 20 -15 43 -9 43 11 0 34 -95 47 -122 17z"/>
<path d="M3160 420 c-25 -25 -26 -72 -2 -93 10 -9 33 -22 50 -28 40 -14 57
-41 42 -69 -15 -28 -70 -28 -77 0 -7 25 -43 27 -43 2 0 -30 42 -62 81 -62 42
1 66 18 79 57 16 44 0 74 -56 104 -53 28 -66 52 -36 68 13 7 26 6 45 -4 21
-11 28 -11 37 0 8 10 6 17 -12 29 -31 22 -84 20 -108 -4z"/>
<path d="M3410 433 c0 -18 104 -262 110 -258 4 3 19 38 35 80 15 41 31 75 35
75 4 0 21 -36 36 -80 16 -44 31 -80 34 -80 3 0 15 24 27 53 11 28 37 89 57
135 35 81 35 82 13 82 -18 0 -28 -15 -57 -85 -19 -46 -38 -81 -41 -77 -3 4
-19 42 -34 85 -15 42 -31 77 -34 77 -3 0 -19 -36 -35 -80 -15 -44 -32 -80 -36
-80 -5 0 -22 35 -38 78 -23 58 -35 78 -51 80 -12 2 -21 0 -21 -5z"/>
<path d="M3965 431 c-43 -19 -68 -59 -72 -113 -5 -63 9 -94 56 -125 60 -41
144 -26 190 33 15 20 21 41 21 80 0 48 -4 59 -33 91 -30 32 -40 36 -88 39 -30
2 -63 0 -74 -5z m138 -62 c27 -33 23 -104 -8 -134 -35 -36 -106 -35 -140 1
-29 32 -34 97 -10 132 32 44 121 45 158 1z"/>
<path d="M4300 306 c0 -128 1 -136 20 -136 16 0 19 8 22 57 l3 57 43 -57 c26
-36 50 -57 62 -57 27 0 25 8 -15 59 -19 24 -35 46 -35 48 0 3 11 14 25 25 19
15 25 29 25 57 0 52 -26 73 -95 79 l-55 4 0 -136z m94 88 c23 -9 21 -61 -3
-74 -40 -21 -51 -13 -51 35 0 47 12 55 54 39z"/>
<path d="M4600 304 l0 -137 63 5 c99 8 147 52 147 135 0 82 -62 133 -160 133
l-50 0 0 -136z m141 67 c56 -57 27 -145 -53 -158 l-38 -6 0 97 0 96 31 0 c20
0 40 -10 60 -29z"/>
<path d="M5569 423 c-86 -53 -81 -196 7 -238 41 -19 97 -19 135 0 88 46 92
183 6 235 -39 24 -112 26 -148 3z m138 -33 c1 0 9 -13 18 -30 22 -43 19 -84
-11 -119 -21 -26 -33 -31 -68 -31 -52 0 -81 20 -96 65 -25 75 47 146 125 124
16 -5 31 -9 32 -9z"/>
<path d="M6382 343 c3 -84 6 -98 21 -101 15 -3 17 7 17 97 0 95 -1 101 -20
101 -20 0 -21 -5 -18 -97z"/>
<path d="M6391 211 c-17 -11 -7 -41 13 -41 22 0 30 20 15 36 -9 8 -19 10 -28
5z"/>
</g>
</svg>
